<svg id="Layer_1" data-name="Layer 1" xmlns="http://www.w3.org/2000/svg" viewBox="0 0 180 75"><defs><style>.cls-1{fill:#f3e940;}</style></defs><title>Artboard 1</title><rect class="cls-1" y="-0.5" width="83" height="50"/><rect class="cls-1" y="31.5" width="180" height="43"/><path d="M19.93,47.31V62.53h-4.2V47.31H9.93V43.44H25.74v3.87Z"/><path d="M41,62.53l-1.74-4.28H31.17l-1.75,4.28H25.14L33.32,43.3h3.87l8.18,19.23ZM35.2,48.35l-2.53,6.19h5.07Z"/><path d="M48.32,62.53V43.44h14.4v3.74H52.49v3.87h9v3.73h-9v4H62.85v3.74Z"/><path d="M76.16,54.92v7.61H72V55L64.62,43.44h4.91l4.56,7.66,4.63-7.66h4.77Z"/><path d="M95.11,62.85A9.78,9.78,0,0,1,85,53V53a10.15,10.15,0,0,1,20.29,0v0A9.87,9.87,0,0,1,95.11,62.85ZM100.89,53a5.79,5.79,0,0,0-5.78-6,5.71,5.71,0,0,0-5.73,5.94v0a5.8,5.8,0,0,0,5.78,6A5.7,5.7,0,0,0,100.89,53Z"/><path d="M117,62.83c-5.13,0-8.26-2.87-8.26-8.48V43.44h4.2v10.8c0,3.11,1.55,4.72,4.11,4.72s4.12-1.56,4.12-4.59V43.44h4.2V54.21C125.35,60,122.1,62.83,117,62.83Z"/><path d="M143,62.53l-9.24-12.14V62.53h-4.15V43.44h3.87l8.95,11.75V43.44h4.14V62.53Z"/><path d="M160.36,62.85c-5.94,0-10-4.17-10-9.81V53a9.79,9.79,0,0,1,10-9.87,10.48,10.48,0,0,1,7.5,2.62l-2.64,3.19a7,7,0,0,0-5-1.93,5.72,5.72,0,0,0-5.48,5.94v0A5.72,5.72,0,0,0,160.5,59a6.65,6.65,0,0,0,3.95-1.15V55.17h-4.23V51.54h8.29v8.29A12.39,12.39,0,0,1,160.36,62.85Z"/><path d="M18.73,31.87H11.29V12.78h7.44c6,0,10.15,4.12,10.15,9.49v.05C28.88,27.7,24.73,31.87,18.73,31.87Zm5.76-9.55a5.48,5.48,0,0,0-5.76-5.75H15.49V28.08h3.24a5.44,5.44,0,0,0,5.76-5.7Z"/><path d="M46.14,31.87l-1.75-4.28H36.32l-1.74,4.28H30.3l8.18-19.23h3.87l8.18,19.23ZM40.36,17.69l-2.54,6.19h5.07Z"/><path d="M66.86,31.87,57.62,19.73V31.87H53.47V12.78h3.87l9,11.75V12.78h4.14V31.87Z"/></svg>